<svg width="108" height="105" viewBox="0 0 108 105" fill="none" xmlns="http://www.w3.org/2000/svg">
    <g clip-path="url(#clip0_80_24)">
    <path d="M92.88 16.308C71.496 14.256 59.4 4.75195 59.4 4.64395C56.268 2.05195 51.84 2.05195 48.708 4.64395C48.6 4.75195 36.504 14.256 15.12 16.308C10.8 16.74 7.56 20.3039 7.56 24.6239C7.56 85.1039 48.924 103.788 50.652 104.544C51.732 104.976 52.812 105.192 54 105.192C55.188 105.192 56.268 104.976 57.348 104.544C59.076 103.788 100.44 85.1039 100.44 24.6239C100.44 20.3039 97.2 16.74 92.88 16.308ZM53.892 97.1999C53.244 96.8759 45.792 93.5279 37.692 85.2119L38.772 75.8159C39.42 70.6319 43.74 66.7439 48.924 66.7439H58.968C64.152 66.7439 68.58 70.6319 69.12 75.8159L70.2 85.2119C62.208 93.5279 54.648 96.8759 53.892 97.1999ZM54 57.0239C48.816 57.0239 44.604 52.8119 44.604 47.6279C44.604 42.4439 48.816 38.2319 54 38.2319C59.184 38.2319 63.396 42.4439 63.396 47.6279C63.396 52.8119 59.184 57.0239 54 57.0239ZM77.436 76.5719L77.22 74.8439C76.464 68.1479 72.036 62.7479 66.204 60.1559C69.444 56.9159 71.496 52.4879 71.496 47.6279C71.496 38.0159 63.612 30.1319 54 30.1319C44.388 30.1319 36.504 38.0159 36.504 47.6279C36.504 52.5959 38.556 57.0239 41.796 60.1559C35.964 62.6399 31.536 68.1479 30.78 74.8439L30.564 76.5719C22.68 65.2319 15.876 48.492 15.984 24.516C40.392 22.1399 53.784 11.016 54.216 11.016C54.756 11.448 68.256 22.248 92.124 24.516L92.34 24.7319C92.34 48.5999 85.428 65.34 77.436 76.5719Z" fill="#B00202"/>
    </g>
    <defs>
    <clipPath id="clip0_80_24">
    <rect width="108" height="135" fill="white"/>
    </clipPath>
    </defs>
    </svg>
