<svg width="108" height="110" viewBox="0 0 108 110" fill="none" xmlns="http://www.w3.org/2000/svg">
    <path d="M30.5438 75.3468C31.2188 76.0218 32.3156 76.0218 32.9906 75.3468L37.125 71.2125C37.4625 70.875 37.6312 70.4531 37.6312 70.0312C37.6312 69.6093 37.4625 69.1874 37.125 68.8499L10.8844 42.8624C10.5469 42.5249 10.125 42.3562 9.61875 42.3562C9.19687 42.3562 8.69062 42.5249 8.35312 42.8624L4.21875 46.9968C3.96562 47.25 3.79688 47.6718 3.79688 48.0937C3.79688 48.5156 3.96562 48.9375 4.30312 49.275L30.5438 75.3468Z" fill="#B00202"/>
    <path d="M71.7188 34.6781C72.3938 35.3531 73.4906 35.3531 74.1656 34.6781L78.3 30.5438C78.6375 30.2063 78.8063 29.7844 78.8063 29.3625C78.8063 28.9406 78.6375 28.5188 78.3 28.1813L51.975 2.19375C51.6375 1.85625 51.2156 1.6875 50.7938 1.6875C50.3719 1.6875 49.8656 1.85625 49.5281 2.19375L45.3938 6.32812C45.0563 6.66563 44.8875 7.0875 44.8875 7.50937C44.8875 7.93125 45.0563 8.35313 45.3938 8.69063L71.7188 34.6781Z" fill="#B00202"/>
    <path d="M104.372 94.4156C104.372 94.0781 104.203 93.825 103.95 93.5719L64.4625 56.3625C64.2094 56.1937 63.9563 56.1094 63.7031 56.1094C63.3656 56.1094 63.0281 56.1937 62.8594 56.4469L62.6906 56.6156L52.9875 47.0812L65.9813 34.2562L45.9 14.3438L16.5375 43.2844L36.6188 63.1125L49.6125 50.2031L59.4 59.9062L59.2313 60.075C58.8094 60.4969 58.725 61.2562 59.2313 61.6781L96.7781 100.659C97.0313 100.912 97.3688 101.081 97.6219 101.081L103.444 101.334C103.866 101.334 104.203 101.166 104.288 100.997C104.456 100.912 104.625 100.575 104.625 100.153L104.372 94.4156Z" fill="#B00202"/>
    <path d="M48.2625 98.4656H3.375V106.312H48.2625V98.4656Z" fill="#B00202"/>
    <path d="M40.6688 86.9062H11.0531V94.7531H40.6688V86.9062Z" fill="#B00202"/>
    </svg>
