<svg width="50" height="50" viewBox="0 0 50 50" fill="none" xmlns="http://www.w3.org/2000/svg"> <path d="M25 0C11.1101 0 0 11.105 0 25C0 38.8899 11.105 50 25 50C38.8899 50 50 38.895 50 25C50 11.1101 38.895 0 25 0ZM25 47.0703C12.7293 47.0703 2.92969 37.2757 2.92969 25C2.92969 12.7293 12.7243 2.92969 25 2.92969C37.2707 2.92969 47.0703 12.7243 47.0703 25C47.0703 37.2707 37.2757 47.0703 25 47.0703Z" fill="#E5E5E5"/> <path d="M36.1323 9.47782C28.5034 4.04843 18.2025 4.76874 11.4368 11.5346C4.7954 18.1759 4.07753 28.5839 9.38007 36.0348C9.90341 36.77 10.9629 36.8627 11.6054 36.2253L36.3146 11.7112C36.9596 11.0714 36.8716 10.004 36.1323 9.47782ZM10.8334 32.8644C7.3285 26.6271 8.34061 18.7741 13.5085 13.6061C18.81 8.30468 26.5886 7.2996 32.9529 10.9196L10.8334 32.8644Z" fill="#E5E5E5"/> <path d="M40.6198 13.9652C40.096 13.2291 39.0358 13.1386 38.3946 13.7747L13.6853 38.2888C13.0403 38.9285 13.1282 39.996 13.8676 40.5221C21.5398 45.9823 31.8354 45.1932 38.5631 38.4653C45.2045 31.824 45.9223 21.4159 40.6198 13.9652ZM36.4915 36.3938C31.189 41.6963 23.4105 42.6999 17.0471 39.0804L39.1666 17.1356C42.6715 23.3728 41.6594 31.2259 36.4915 36.3938Z" fill="#FFFFFF"/></svg>