<svg width="134" height="110" viewBox="0 0 134 110" fill="none"
    xmlns="http://www.w3.org/2000/svg">
    <path d="M43.7844 22.848C37.1077 22.848 31.624 28.3481 31.624 35.0448C31.624 38.3319 32.9782 41.2979 35.1132 43.4994C27.8902 46.631 22.78 53.5369 22.78 61.656C22.7801 62.5382 23.1295 63.3842 23.7515 64.008C24.3734 64.6318 25.2169 64.9823 26.0965 64.9824H61.4724C62.3519 64.9823 63.1954 64.6318 63.8174 64.008C64.4393 63.3842 64.7888 62.5382 64.7888 61.656C64.7888 53.5369 59.6787 46.631 52.4557 43.4994C54.5906 41.2979 55.9449 38.3319 55.9449 35.0448C55.9449 28.3481 50.4612 22.848 43.7844 22.848ZM90.2152 22.848C83.5385 22.848 78.0548 28.3481 78.0548 35.0448C78.0548 38.3319 79.409 41.2979 81.544 43.4994C74.321 46.631 69.2108 53.5369 69.2108 61.656C69.2109 62.5382 69.5604 63.3842 70.1823 64.008C70.8042 64.6318 71.6478 64.9823 72.5273 64.9824H96.8482C97.2877 64.9887 97.724 64.9072 98.1319 64.7428C98.5397 64.5785 98.9109 64.3344 99.2238 64.0249C99.5368 63.7154 99.7853 63.3466 99.955 62.94C100.125 62.5333 100.212 62.0969 100.212 61.656C100.212 61.2152 100.125 60.7788 99.955 60.3721C99.7853 59.9654 99.5368 59.5966 99.2238 59.2871C98.9109 58.9776 98.5397 58.7336 98.1319 58.5692C97.724 58.4048 97.2877 58.3234 96.8482 58.3296H76.3275C77.9068 52.6406 83.4066 48.3504 90.2152 48.3504C98.3037 48.3504 104.587 54.388 104.587 61.656C104.58 62.0968 104.662 62.5344 104.826 62.9435C104.989 63.3525 105.233 63.7248 105.541 64.0387C105.85 64.3526 106.218 64.6019 106.623 64.772C107.029 64.9422 107.464 65.0298 107.903 65.0298C108.343 65.0298 108.778 64.9422 109.183 64.772C109.589 64.6019 109.956 64.3526 110.265 64.0387C110.574 63.7248 110.817 63.3525 110.981 62.9435C111.145 62.5344 111.226 62.0968 111.22 61.656C111.22 53.5369 106.11 46.631 98.8865 43.4994C101.021 41.2979 102.376 38.3319 102.376 35.0448C102.376 28.3481 96.892 22.848 90.2152 22.848ZM43.7844 29.5008C46.8764 29.5008 49.3119 31.9436 49.3119 35.0448C49.3119 38.1461 46.8764 40.5888 43.7844 40.5888C40.6924 40.5888 38.2569 38.1461 38.2569 35.0448C38.2569 31.9436 40.6924 29.5008 43.7844 29.5008ZM90.2152 29.5008C93.3073 29.5008 95.7427 31.9436 95.7427 35.0448C95.7427 38.1461 93.3073 40.5888 90.2152 40.5888C87.1232 40.5888 84.6878 38.1461 84.6878 35.0448C84.6878 31.9436 87.1232 29.5008 90.2152 29.5008ZM43.7844 48.3504C50.5931 48.3504 56.0929 52.6406 57.6722 58.3296H29.8966C31.4759 52.6406 36.9758 48.3504 43.7844 48.3504ZM66.9998 69.4176C60.3231 69.4176 54.8394 74.9177 54.8394 81.6144C54.8394 84.9015 56.1936 87.8675 58.3286 90.069C51.1056 93.2006 45.9954 100.107 45.9954 108.226C45.9955 109.108 46.3449 109.954 46.9669 110.578C47.5888 111.201 48.4323 111.552 49.3119 111.552H84.6878C85.5673 111.552 86.4108 111.201 87.0328 110.578C87.6547 109.954 88.0042 109.108 88.0043 108.226C88.0043 100.107 82.8941 93.2006 75.6711 90.069C77.806 87.8675 79.1603 84.9015 79.1603 81.6144C79.1603 74.9177 73.6766 69.4176 66.9998 69.4176ZM66.9998 76.0704C70.0919 76.0704 72.5273 78.5132 72.5273 81.6144C72.5273 84.7157 70.0919 87.1584 66.9998 87.1584C63.9078 87.1584 61.4724 84.7157 61.4724 81.6144C61.4724 78.5132 63.9078 76.0704 66.9998 76.0704ZM66.9998 94.92C73.8085 94.92 79.3083 99.2102 80.8876 104.899H53.112C54.6913 99.2102 60.1912 94.92 66.9998 94.92Z" fill="#B00202"/>
</svg>
