<?xml version="1.0" encoding="UTF-8" standalone="no"?>
<svg xmlns="http://www.w3.org/2000/svg" viewBox="0 0 100 100" width="100%" height="100%">
    <defs>
        <style type="text/css">
            <![CDATA[
       .fil0 {stroke: black; stroke-width:1px; fill:white}
      ]]>
        </style>
    </defs>

    <path class="fil0" d="M25.32608,37.40756h.00067a1.63224,1.63224,0,0,1,1.09778.4552,4.01612,4.01612,0,0,0,1.32965.60168c5.07635-.27026,9.68237-.47015,15.306-.56091.033-2.04205.22552-4.08307.4126-6.06616a66.678,66.678,0,0,0,.40717-6.742,5.52594,5.52594,0,0,0-.85236-1.74359,1.63729,1.63729,0,0,1-.49469-1.67749c.33606-1.05536,1.63391-1.32031,3.2771-1.65576,1.1604-.23688,2.914-.59485,3.3374-1.1911L50,17.62656l.85266,1.20087c.42181.59406,2.554.97144,3.82788,1.19684,1.96606.348,3.38654.59937,3.75049,1.69269a1.5852,1.5852,0,0,1-.45966,1.63666,5.53445,5.53445,0,0,0-.85107,1.743l-.0882,6.85236-.07672,5.95483c5.61371.09082,10.21625.29059,15.28748.56049a4.00768,4.00768,0,0,0,1.333-.60181,1.63156,1.63156,0,0,1,1.09778-.4549,1.407,1.407,0,0,1,.989.39233L70.4238,15.76572h-.03C70.169,13.77554,61.68069,10.17258,50,10.17258s-20.16895,3.603-20.39374,5.59314h-.03L24.33749,37.79947A1.40678,1.40678,0,0,1,25.32608,37.40756Z"/>
    <path class="fil0" style="fill:rgb(176, 2, 2)" d="M74.27139,38.64334a5.4353,5.4353,0,0,1-1.9212.87384c-5.8147-.31055-10.63336-.50488-16.45386-.58331q.09018-6.99838.18024-13.99677a6.87169,6.87169,0,0,1,1.13348-2.30035C58.90121,20.832,51.40817,21.416,50,19.43283c-1.40814,1.98322-7.90057,1.39917-6.20935,3.20392A6.87125,6.87125,0,0,1,44.9241,24.9371c.06006,4.66559-.88049,9.33118-.82037,13.99677-5.82172.07843-10.64166.27277-16.45764.5835a5.4324,5.4324,0,0,1-1.91742-.874c-1.55426-1.38428-1.6286,5.20062-3.14484,6.53778,1.67133,1.13849.52527,7.7887,1.86652,6.23407.55066-.63757,2.762-1.0791,2.76215-1.07849q8.51038-.45456,17.0307-.56921c.14209,11.03149.28412,20.48682.42615,31.51837a7.54355,7.54355,0,0,1-.92822,2.32465C42.33023,85.44193,48.79593,84.69168,50,86.71207c1.2041-2.02075,7.6698-1.27,6.25891-3.10156a7.54355,7.54355,0,0,1-.92822-2.32465c.142-11.03156.28412-20.48688.42615-31.51837q8.51688.11481,17.027.56909c.00012-.00043,2.21515.44086,2.76581,1.07861,1.34125,1.55481.19513-5.09552,1.86646-6.23407C75.89993,43.844,75.82559,37.25912,74.27139,38.64334ZM28.51291,46.03958q-.05814-1.23138-.11615-2.46289,7.985-.37656,15.9776-.47461.01511,1.23276.03027,2.46545Q36.4563,45.665,28.51291,46.03958ZM50.4371,52.53812q-.02124,13.03793-.40906,26.076a.0293.0293,0,0,1-.05609,0q-.39432-13.038-.409-26.076c-.04059-4.346-.0213-8.69208.032-13.03809.0592-4.346.17194-8.692.4035-13.038h.00305c.23157,4.34595.3443,8.692.4035,13.038C50.45834,43.846,50.47763,48.19211,50.4371,52.53812Zm21.05-6.49854q-7.94211-.37454-15.89166-.472.0152-1.23267.03027-2.46545,7.99127.09805,15.97754.47461Q71.54517,44.80817,71.48715,46.03958Z"/>
    <path class="fil0" d="M75.89273,52.69516a1.48091,1.48091,0,0,1-1.12366-.5849,6.89642,6.89642,0,0,0-2.11713-.73352c-5.25549-.27979-10.58643-.46393-15.863-.54828-.06653,5.11993-.13306,9.91644-.19958,14.71277-.07043,5.0813-.14087,10.16278-.21136,15.629a6.11732,6.11732,0,0,0,.70941,1.80219,1.6264,1.6264,0,0,1,.32135,1.62537c-.39178,1.02136-1.67078,1.25653-3.29,1.55432-1.07855.1983-2.88373.53027-3.2204,1.09528l-.89825,1.50745-.89832-1.50739c-.33667-.56488-2.14178-.89691-3.22034-1.09528-1.61938-.29779-2.89844-.53308-3.29022-1.55444a1.625,1.625,0,0,1,.32019-1.62372,6.09856,6.09856,0,0,0,.71063-1.80353c-.07043-5.46478-.14087-10.54529-.2113-15.62531-.06653-4.79755-.13312-9.59546-.19965-14.71667-5.27686.08429-10.6095.26855-15.86707.5484a7.01706,7.01706,0,0,0-2.10193.72137,1.49621,1.49621,0,0,1-1.13483.59686c-.86487,0-1.19562-.60406-1.35065-1.5144l1.13239,32.122C39.22659,87.85452,50,89.82742,50,89.82742a263.42466,263.42466,0,0,0,26.1109-6.52472l1.13232-32.12048C77.0881,52.09177,76.75723,52.69516,75.89273,52.69516ZM30.45554,73.445a.71887.71887,0,1,1,.71887-.71887A.71886.71886,0,0,1,30.45554,73.445Zm0-5.96875a.71887.71887,0,1,1,.71887-.71887A.71886.71886,0,0,1,30.45554,67.47629Zm0-5.96875a.71887.71887,0,1,1,.71887-.71887A.71886.71886,0,0,1,30.45554,61.50754Zm3.34857,14.55762a.71884.71884,0,1,1,.71887-.71881A.71888.71888,0,0,1,33.80411,76.06516Zm0-5.96869a.71887.71887,0,1,1,.71887-.71887A.71894.71894,0,0,1,33.80411,70.09647Zm0-5.96875a.71887.71887,0,1,1,.71887-.71887A.7189.7189,0,0,1,33.80411,64.12772Zm3.38654,15.28607a.71887.71887,0,1,1,.71887-.71887A.71886.71886,0,0,1,37.19064,79.41379Zm0-5.96875a.71887.71887,0,1,1,.71887-.71887A.71886.71886,0,0,1,37.19064,73.445Zm0-5.96875a.71887.71887,0,1,1,.71887-.71887A.71886.71886,0,0,1,37.19064,67.47629Zm0-5.96875a.71887.71887,0,1,1,.71887-.71887A.71886.71886,0,0,1,37.19064,61.50754ZM62.80942,79.41379a.71887.71887,0,1,1,.71881-.71887A.71886.71886,0,0,1,62.80942,79.41379Zm0-5.96875a.71887.71887,0,1,1,.71881-.71887A.71886.71886,0,0,1,62.80942,73.445Zm0-5.96875a.71887.71887,0,1,1,.71881-.71887A.71886.71886,0,0,1,62.80942,67.47629Zm0-5.96875a.71887.71887,0,1,1,.71881-.71887A.71886.71886,0,0,1,62.80942,61.50754Zm3.38647,14.55762a.71884.71884,0,1,1,.71887-.71881A.71884.71884,0,0,1,66.19589,76.06516Zm0-5.96869a.71887.71887,0,1,1,.71887-.71887A.7189.7189,0,0,1,66.19589,70.09647Zm0-5.96875a.71887.71887,0,1,1,.71887-.71887A.71886.71886,0,0,1,66.19589,64.12772ZM69.54453,73.445a.71887.71887,0,1,1,.71881-.71887A.71886.71886,0,0,1,69.54453,73.445Zm0-5.96875a.71887.71887,0,1,1,.71881-.71887A.71886.71886,0,0,1,69.54453,67.47629Zm0-5.96875a.71887.71887,0,1,1,.71881-.71887A.71886.71886,0,0,1,69.54453,61.50754Z" />
</svg>