<svg fill="none"
    xmlns="http://www.w3.org/2000/svg" viewBox="4.17 4.17 41.67 41.67">
    <path d="M25 22.9167C23.75 22.9167 22.9167 23.75 22.9167 25C22.9167 26.25 23.75 27.0833 25 27.0833C26.25 27.0833 27.0833 26.25 27.0833 25C27.0833 23.75 26.25 22.9167 25 22.9167ZM25 4.16666C13.5417 4.16666 4.16666 13.5417 4.16666 25C4.16666 36.4583 13.5417 45.8333 25 45.8333C36.4583 45.8333 45.8333 36.4583 45.8333 25C45.8333 13.5417 36.4583 4.16666 25 4.16666ZM22.9167 8.54166C23.5417 8.33332 24.375 8.33332 25 8.33332C25.625 8.33332 26.4583 8.33332 27.0833 8.54166V10.4167C27.0833 11.6667 26.25 12.5 25 12.5C23.75 12.5 22.9167 11.6667 22.9167 10.4167V8.54166ZM10.4167 27.0833H8.54166C8.33332 26.4583 8.33332 25.625 8.33332 25C8.33332 24.375 8.33332 23.5417 8.54166 22.9167H10.4167C11.6667 22.9167 12.5 23.75 12.5 25C12.5 26.25 11.6667 27.0833 10.4167 27.0833ZM27.0833 41.4583C26.4583 41.4583 25.625 41.6667 25 41.6667C24.375 41.6667 23.5417 41.6667 22.9167 41.4583V39.5833C22.9167 38.3333 23.75 37.5 25 37.5C26.25 37.5 27.0833 38.3333 27.0833 39.5833V41.4583ZM34.1667 18.5417L29.7917 28.75C29.5833 29.1667 29.1667 29.5833 28.75 29.7917L18.5417 34.1667C18.125 34.375 17.9167 34.375 17.7083 34.375C16.4583 34.375 15.625 33.5417 15.625 32.2917C15.625 32.0833 15.625 31.6667 15.8333 31.4583L20.2083 21.25C20.4167 20.8333 20.8333 20.4167 21.25 20.2083L31.4583 15.8333C32.5 15.4167 33.75 15.8333 34.1667 16.875C34.375 17.5 34.375 17.9167 34.1667 18.5417ZM39.5833 27.0833C38.3333 27.0833 37.5 26.25 37.5 25C37.5 23.75 38.3333 22.9167 39.5833 22.9167H41.4583C41.4583 23.5417 41.6667 24.375 41.6667 25C41.6667 25.625 41.6667 26.4583 41.4583 27.0833H39.5833Z" fill="#FFFFFF"></path>
</svg>