<svg fill="none" xmlns="http://www.w3.org/2000/svg" viewBox="5.11 5.39 39.78 29.81"> <path d="M44.8686 11.435C44.8686 11.2449 44.7751 11.0667 44.6219 10.9584C44.4668 10.8485 44.2687 10.8217 44.0888 10.8884L37.082 13.4266C36.1554 13.8398 35.5653 14.7148 35.452 15.6699L28.9185 12.7C28.7801 12.6132 25.5636 10.7151 21.4099 13.5884L14.5484 14.1267C14.6533 12.9551 14.0118 11.7932 12.8634 11.2882L5.88851 8.78324C5.71189 8.7199 5.51016 8.74836 5.35531 8.85494C5.20018 8.96348 5.10838 9.14177 5.10838 9.33346L5.13182 26.1485C5.13182 26.305 5.19348 26.4534 5.30341 26.5617C5.41335 26.6699 5.56011 26.7316 5.71496 26.7316H5.71664L8.30171 26.7249C9.3235 26.7232 10.2216 26.1465 10.7116 25.2799L23.0501 34.7449C23.4784 34.9782 24.1352 35.2 24.8236 35.2C25.5136 35.2 26.2334 34.9751 26.7887 34.3116C27.4271 34.5699 28.2887 34.655 29.0421 34.3632C29.5237 34.1765 30.1138 33.7764 30.4587 32.9248C31.2452 33.2097 32.0437 33.1983 32.6919 32.8715C33.3552 32.5398 33.8169 31.9131 34.022 31.0783C34.6771 31.0733 35.5204 30.8833 36.142 30.3049C36.5519 29.9232 36.9671 29.2198 36.9188 28.0931L39.0454 26.8763L39.0739 26.9597C39.464 28.0864 40.5256 28.8397 41.7173 28.8397H41.7224L44.3108 28.8347C44.6325 28.8347 44.8942 28.573 44.8925 28.2513L44.8686 11.435ZM33.815 29.8914L30.9299 26.8347C30.7067 26.5981 30.3381 26.5898 30.1049 26.8096C29.8699 27.0312 29.8599 27.3998 30.0798 27.6347L32.9116 30.6364C32.8315 31.0881 32.6381 31.5881 32.1666 31.8263C31.7014 32.0546 31.065 31.9815 30.4498 31.6296L27.7681 28.7164C27.5483 28.4815 27.178 28.4648 26.943 28.6816C26.7081 28.8983 26.6914 29.27 26.9082 29.5066L29.4199 32.2348C29.2681 32.7432 29.0181 33.1166 28.6182 33.2731C28.0331 33.4979 27.2965 33.3146 26.9798 33.0948L24.6665 30.6748C24.4432 30.4432 24.0763 30.4349 23.8414 30.6564C23.6081 30.8796 23.5998 31.2482 23.823 31.4815L25.8397 33.5914C25.0448 34.4332 23.7697 33.8015 23.6832 33.7647L11.1782 24.1661L14.2315 15.3211L20.0665 14.8644C18.8983 16.2259 17.7549 17.9693 17.6631 18.1194C17.6115 18.231 17.1715 19.2427 17.6564 20.2142C17.9915 20.8841 18.6598 21.3325 19.7663 21.556C20.823 21.5543 21.7697 21.296 23.4048 20.0077C24.0965 19.9876 25.1548 19.7078 25.8648 19.1093L35.7434 28.0143C35.8001 28.6359 35.6851 29.1326 35.3467 29.4459C34.9167 29.8441 34.2417 29.9392 33.8152 29.891L33.815 29.8914ZM36.4052 27.0412L26.2202 17.8612C26.0952 17.748 25.937 17.693 25.7584 17.7162C25.5901 17.7363 25.4417 17.8278 25.3468 17.9678C24.9286 18.5895 23.6702 18.9028 23.4018 18.8395C23.2152 18.7828 23.0168 18.8227 22.867 18.9444C21.362 20.1629 20.6437 20.3877 19.8887 20.4028C19.2721 20.2694 18.8737 20.0328 18.7037 19.6994C18.4722 19.2427 18.6954 18.6776 18.6853 18.6776C18.7788 18.5359 20.5469 15.8492 21.7771 14.746C25.4122 12.0111 28.1937 13.6243 28.3689 13.7276L35.6139 17.0258L38.6538 25.7544L36.4052 27.0412Z" fill="white"></path> <path d="M23.5636 22.73L18.3954 24.8818C18.2154 24.9568 18.0837 25.1184 18.0471 25.3084C18.0106 25.5001 18.0706 25.6968 18.2087 25.8352L21.0988 28.6967C21.2087 28.805 21.3571 28.865 21.5086 28.865C21.5435 28.865 21.5787 28.8616 21.6136 28.8549C21.8002 28.8201 21.9601 28.6967 22.0385 28.5232L24.3169 23.5098C24.4151 23.2913 24.3719 23.0349 24.2053 22.863C24.0385 22.6917 23.7851 22.6417 23.5636 22.7299L23.5636 22.73ZM21.3236 27.2768L19.6521 25.6217L22.6437 24.3767L21.3236 27.2768Z" fill="white"></path> <path d="M34.775 12.0328C36.1232 12.0328 37.2184 10.9363 37.2184 9.58948C37.2184 8.2429 36.1235 7.14612 34.775 7.14612C33.4268 7.14612 32.3316 8.24269 32.3316 9.58948C32.3316 10.9363 33.4282 12.0328 34.775 12.0328ZM34.775 8.31298C35.4801 8.31298 36.0534 8.88468 36.0534 9.58976C36.0532 10.2946 35.4798 10.8663 34.775 10.8663C34.0699 10.8663 33.4966 10.2929 33.4966 9.58948C33.4966 8.88635 34.07 8.31298 34.775 8.31298V8.31298Z" fill="white"></path> <path d="M30.38 7.52357C30.9685 7.52357 31.4467 7.047 31.4467 6.45685C31.4467 5.8667 30.9702 5.39014 30.38 5.39014C29.7899 5.39014 29.3133 5.8667 29.3133 6.45685C29.3133 7.04502 29.7915 7.52357 30.38 7.52357Z" fill="white"></path> </svg>