<?xml version="1.0" encoding="UTF-8"?>
<svg width="700pt" height="700pt" version="1.1" viewBox="0 0 700 700" xmlns="http://www.w3.org/2000/svg">
 <path d="m490 102.47-119.84-22.398c-12.336-2.4609-25.117 0.83594-34.719 8.9609-2.9531 2.3789-5.5078 5.2148-7.5625 8.3984-4.9844 6.9297-7.6328 15.266-7.5586 23.801v317.52c-0.10937 8.5859 2.6523 16.961 7.8398 23.801 1.9727 3.3281 4.5352 6.2695 7.5586 8.6797 7.5195 6.1211 16.906 9.4805 26.602 9.5195 2.6367-0.003906 5.2617-0.28516 7.8398-0.83984l120.12-22.684v0.003907c9.5859-1.8242 18.242-6.9297 24.477-14.441 6.2344-7.5117 9.6562-16.961 9.6836-26.719v-272.44c-0.035156-9.8008-3.4961-19.281-9.7891-26.801-6.2891-7.5156-15.012-12.594-24.652-14.359zm-113.68 191.24v0.003907c-0.023437 7.7227-6.2773 13.977-14 14-7.6836-0.12109-13.879-6.3203-14-14v-27.441c0.12109-7.6797 6.3164-13.879 14-14 7.7227 0.023438 13.977 6.2773 14 14zm-84-172.48v317.52c-0.085937 8.2422 1.4375 16.422 4.4805 24.082h-79.242c-11.113-0.082031-21.75-4.5312-29.609-12.391s-12.309-18.496-12.391-29.609v-281.4c0.035156-11.129 4.4688-21.793 12.34-29.66 7.8672-7.8711 18.531-12.309 29.66-12.34h79.242c-3.0195 7.5703-4.5391 15.652-4.4805 23.801z"/>
</svg>
