<svg fill="none" xmlns="http://www.w3.org/2000/svg" viewBox="7.5 2.97 34.9 34.53"> <path d="M12.1 7.3C12.1 7.70486 11.7719 8.03329 11.367 8.03329C10.9619 8.03329 10.6337 7.70488 10.6337 7.3C10.6337 6.89512 10.9618 6.56671 11.367 6.56671C11.7719 6.56671 12.1 6.89512 12.1 7.3Z" fill="#E5E5E5"></path> <path d="M20.1 7.3C20.1 7.70486 19.7719 8.03329 19.367 8.03329C18.9619 8.03329 18.6337 7.70488 18.6337 7.3C18.6337 6.89512 18.9618 6.56671 19.367 6.56671C19.7719 6.56671 20.1 6.89512 20.1 7.3Z" fill="#E5E5E5"></path> <path d="M16.1 7.3C16.1 7.70486 15.7719 8.03329 15.367 8.03329C14.9619 8.03329 14.6337 7.70488 14.6337 7.3C14.6337 6.89512 14.9618 6.56671 15.367 6.56671C15.7719 6.56671 16.1 6.89512 16.1 7.3Z" fill="#E5E5E5"></path> <path d="M7.5 2.9668V11.5432H42.4V2.9668H7.5ZM11.3669 9.03322C10.411 9.03322 9.63364 8.25558 9.63364 7.29994C9.63364 6.3443 10.4113 5.56665 11.3669 5.56665C12.3226 5.56665 13.1002 6.3443 13.1002 7.29994C13.0999 8.25615 12.3223 9.03322 11.3669 9.03322ZM15.3669 9.03322C14.411 9.03322 13.6336 8.25558 13.6336 7.29994C13.6336 6.3443 14.4113 5.56665 15.3669 5.56665C16.3226 5.56665 17.1002 6.3443 17.1002 7.29994C17.0999 8.25615 16.3223 9.03322 15.3669 9.03322ZM19.3669 9.03322C18.411 9.03322 17.6336 8.25558 17.6336 7.29994C17.6336 6.3443 18.4113 5.56665 19.3669 5.56665C20.3226 5.56665 21.1002 6.3443 21.1002 7.29994C21.0999 8.25615 20.3223 9.03322 19.3669 9.03322ZM30.4669 9.40013H23.1276V8.40013H30.4669V9.40013ZM30.4669 7.79999H23.1276V6.79999H30.4669V7.79999ZM30.4669 6.20013H23.1276V5.20013H30.4669V6.20013ZM33.667 7.79999H31.9334V6.79999H33.667V7.79999ZM39.7337 7.79999H34.6001V6.79999H39.7337V7.79999Z" fill="#E5E5E5"></path> <path d="M7.5 21.2886H42.4V12.7122H7.5V21.2886ZM34.6 16.5001H39.7336V17.5001H34.6V16.5001ZM31.9334 16.5001H33.667V17.5001H31.9334V16.5001ZM23.127 14.9002H30.4663V15.9002H23.127V14.9002ZM23.127 16.5001H30.4663V17.5001H23.127V16.5001ZM23.127 18.0999H30.4663V19.0999H23.127V18.0999ZM19.3666 15.2668C20.3223 15.2668 21.0999 16.0444 21.0999 17.0001C21.0999 17.956 20.3223 18.7334 19.3666 18.7334C18.4107 18.7334 17.6334 17.9557 17.6334 17.0001C17.6328 16.0444 18.4104 15.2668 19.3666 15.2668ZM15.3666 15.2668C16.3223 15.2668 17.0999 16.0444 17.0999 17.0001C17.0999 17.956 16.3223 18.7334 15.3666 18.7334C14.4107 18.7334 13.6334 17.9557 13.6334 17.0001C13.6328 16.0444 14.4104 15.2668 15.3666 15.2668ZM11.3666 15.2668C12.3223 15.2668 13.0999 16.0444 13.0999 17.0001C13.0999 17.956 12.3223 18.7334 11.3666 18.7334C10.4107 18.7334 9.63335 17.9557 9.63335 17.0001C9.6328 16.0444 10.4104 15.2668 11.3666 15.2668Z" fill="#E5E5E5"></path> <path d="M12.1 17C12.1 17.4049 11.7719 17.7333 11.367 17.7333C10.9619 17.7333 10.6337 17.4049 10.6337 17C10.6337 16.5951 10.9618 16.2667 11.367 16.2667C11.7719 16.2667 12.1 16.5951 12.1 17Z" fill="#E5E5E5"></path> <path d="M20.1 17C20.1 17.4049 19.7719 17.7333 19.367 17.7333C18.9619 17.7333 18.6337 17.4049 18.6337 17C18.6337 16.5951 18.9618 16.2667 19.367 16.2667C19.7719 16.2667 20.1 16.5951 20.1 17Z" fill="#E5E5E5"></path> <path d="M16.1 17C16.1 17.4049 15.7719 17.7333 15.367 17.7333C14.9619 17.7333 14.6337 17.4049 14.6337 17C14.6337 16.5951 14.9618 16.2667 15.367 16.2667C15.7719 16.2667 16.1 16.5951 16.1 17Z" fill="#E5E5E5"></path> <path d="M16.1 27.1171C16.1 27.522 15.7719 27.8501 15.367 27.8501C14.9619 27.8501 14.6337 27.522 14.6337 27.1171C14.6337 26.712 14.9618 26.3839 15.367 26.3839C15.7719 26.3839 16.1 26.712 16.1 27.1171Z" fill="#E5E5E5"></path> <path d="M12.1 27.1171C12.1 27.522 11.7719 27.8501 11.367 27.8501C10.9619 27.8501 10.6337 27.522 10.6337 27.1171C10.6337 26.712 10.9618 26.3839 11.367 26.3839C11.7719 26.3839 12.1 26.712 12.1 27.1171Z" fill="#E5E5E5"></path> <path d="M7.5 31.0336H24.5V33.5029C23.7821 33.6862 23.2193 34.2489 23.036 34.9669H8.00028V35.9669H23.036C23.2603 36.8458 24.0524 37.5004 25 37.5004C25.9481 37.5004 26.7399 36.8455 26.964 35.9669H41.9004V34.9669H26.964C26.7807 34.2489 26.2179 33.6862 25.5 33.5029V31.0336H42.4V22.4572H7.5V31.0336ZM34.6 26.6164H39.7336V27.6164H34.6V26.6164ZM31.9334 26.6164H33.667V27.6164H31.9334V26.6164ZM23.127 24.6164H30.4663V25.6164H23.127V24.6164ZM23.127 26.2166H30.4663V27.2166H23.127V26.2166ZM23.127 27.8164H30.4663V28.8164H23.127V27.8164ZM19.3666 25.3832C20.3223 25.3832 21.0999 26.1602 21.0999 27.1164C21.0999 28.0724 20.3223 28.85 19.3666 28.85C18.4107 28.85 17.6334 28.0724 17.6334 27.1164C17.6334 26.1605 18.4104 25.3832 19.3666 25.3832ZM15.3666 25.3832C16.3223 25.3832 17.0999 26.1602 17.0999 27.1164C17.0999 28.0724 16.3223 28.85 15.3666 28.85C14.4107 28.85 13.6334 28.0724 13.6334 27.1164C13.6334 26.1605 14.4104 25.3832 15.3666 25.3832ZM11.3666 25.3832C12.3223 25.3832 13.0999 26.1602 13.0999 27.1164C13.0999 28.0724 12.3223 28.85 11.3666 28.85C10.4107 28.85 9.63335 28.0724 9.63335 27.1164C9.63335 26.1605 10.4104 25.3832 11.3666 25.3832Z" fill="#E5E5E5"></path> <path d="M20.1 27.1171C20.1 27.522 19.7719 27.8501 19.367 27.8501C18.9619 27.8501 18.6337 27.522 18.6337 27.1171C18.6337 26.712 18.9618 26.3839 19.367 26.3839C19.7719 26.3839 20.1 26.712 20.1 27.1171Z" fill="#E5E5E5"></path> </svg>