<svg viewBox="7.4 5.2 35.2 29.6" xmlns="http://www.w3.org/2000/svg" fill="none">
    <path d="M7.80215 5.20007C7.58117 5.20007 7.40204 5.3792 7.40204 5.60019C7.40204 5.82117 7.58117 6.0003 7.80215 6.0003H13.1272C15.2118 11.1942 17.2868 16.3903 19.3647 21.5882L17.4272 26.2383C17.3181 26.4836 17.5337 26.8072 17.8022 26.8008H37.8022C38.0134 26.8047 38.2079 26.6122 38.2079 26.4007C38.2079 26.1895 38.0134 25.9978 37.8022 26.0006H18.4022L20.0897 21.9632L39.8397 20.3881C40.0026 20.3725 40.1494 20.247 40.1895 20.0882L42.5897 9.6882C42.6416 9.45606 42.4401 9.20243 42.2021 9.20076H15.2771L13.7771 5.45076C13.7174 5.30288 13.5617 5.19909 13.4021 5.20076L7.80215 5.20007ZM15.6022 10H25.0022V15.2001H17.6772L15.6022 10ZM25.8022 10H32.2023V15.2001H25.8022V10ZM33.0022 10H41.7022L40.5021 15.2001H33.0021L33.0022 10ZM18.0022 16H25.0022V20.7749L20.0647 21.175L18.0022 16ZM25.8022 16H32.2023V20.2001L25.8022 20.7126V16ZM33.0022 16H40.315L39.4774 19.625L33.0025 20.1376L33.0022 16ZM22.2022 28.4C20.4396 28.4 19.0021 29.8375 19.0021 31.6001C19.0021 33.3626 20.4396 34.8001 22.2022 34.8001C23.9647 34.8001 25.4022 33.3626 25.4022 31.6001C25.4022 29.8375 23.9647 28.4 22.2022 28.4ZM33.4022 28.4C31.6396 28.4 30.2021 29.8375 30.2021 31.6001C30.2021 33.3626 31.6396 34.8001 33.4022 34.8001C35.1647 34.8001 36.6022 33.3626 36.6022 31.6001C36.6022 29.8375 35.1647 28.4 33.4022 28.4ZM22.2022 29.1999C23.5325 29.1999 24.6023 30.2697 24.6023 31.6001C24.6023 32.9304 23.5325 34.0002 22.2022 34.0002C20.8721 34.0002 19.802 32.9304 19.802 31.6001C19.802 30.27 20.8718 29.1999 22.2022 29.1999ZM33.4022 29.1999C34.7322 29.1999 35.8023 30.2697 35.8023 31.6001C35.8023 32.9301 34.7325 34.0002 33.4022 34.0002C32.0718 34.0002 31.002 32.9304 31.002 31.6001C31.002 30.2697 32.0718 29.1999 33.4022 29.1999Z" fill="#FFFFFF"></path>
</svg>