<svg width="97" height="96" viewBox="0 0 97 96" fill="none" xmlns="http://www.w3.org/2000/svg">
    <path fill-rule="evenodd" clip-rule="evenodd" d="M0.809341 30.957L0.80934 64.6398C10.8671 58.1183 29.5765 52.5524 43.5161 52.5524C43.5165 66.4924 37.9506 85.202 31.429 95.26L65.1112 95.2599C58.161 83.1776 53.6565 64.186 54.2932 52.2157C68.2328 52.2157 86.9421 57.7815 97 64.3031L97 30.6203C86.9422 37.1418 68.2328 42.7077 54.2931 42.7076C54.2931 28.7678 59.8589 10.0582 66.3804 0.000212712L32.698 -4.21609e-06C39.6483 12.0826 44.1527 31.0742 43.5161 43.0444C29.5765 43.0444 10.8672 37.4785 0.809341 30.9569L0.809341 30.957Z" fill="#B00202"/>
    </svg>
    